<?xml version="1.0" encoding="iso-8859-1"?>
<!-- Generator: Adobe Illustrator 19.0.0, SVG Export Plug-In . SVG Version: 6.00 Build 0)  -->
<svg version="1.1" id="Capa_1" xmlns="http://www.w3.org/2000/svg" xmlns:xlink="http://www.w3.org/1999/xlink" x="0px" y="0px"
	 viewBox="0 0 512 512" style="enable-background:new 0 0 512 512;" xml:space="preserve">
<g>
	<g>
		<path d="M47.048,303.622H32.259C14.472,303.622,0,318.094,0,335.881s14.472,32.259,32.259,32.259h73.285L47.048,303.622z"/>
	</g>
</g>
<g>
	<g>
		<path d="M416.134,112.717C373.36,69.944,316.49,46.388,256,46.388S138.64,69.944,95.866,112.718
			c-42.772,42.773-66.329,99.644-66.329,160.134v0.771h2.722h447.482h2.722v-0.771C482.463,212.361,458.906,155.491,416.134,112.717
			z M205.309,207.982c-8.284,0-15-6.716-15-15s6.715-15,15-15c8.284,0,15,6.716,15,15S213.593,207.982,205.309,207.982z
			 M256,148.575c-8.284,0-15-6.716-15-15s6.716-15,15-15s15,6.716,15,15S264.284,148.575,256,148.575z M306.691,207.982
			c-8.284,0-15-6.716-15-15s6.716-15,15-15s15,6.716,15,15S314.975,207.982,306.691,207.982z"/>
	</g>
</g>
<g>
	<g>
		<polygon points="87.543,303.622 154.12,377.053 220.698,303.622 		"/>
	</g>
</g>
<g>
	<g>
		<path d="M479.741,398.14H175.497l-21.377,23.577l-21.376-23.577H32.259c-0.913,0-1.818-0.03-2.722-0.069v67.54h452.926v-67.54
			C481.56,398.11,480.654,398.14,479.741,398.14z"/>
	</g>
</g>
<g>
	<g>
		<path d="M479.741,303.622H261.193l-58.496,64.518h277.044c17.787,0,32.259-14.472,32.259-32.259
			C512,318.094,497.528,303.622,479.741,303.622z"/>
	</g>
</g>
<g>
</g>
<g>
</g>
<g>
</g>
<g>
</g>
<g>
</g>
<g>
</g>
<g>
</g>
<g>
</g>
<g>
</g>
<g>
</g>
<g>
</g>
<g>
</g>
<g>
</g>
<g>
</g>
<g>
</g>
</svg>
