<?xml version="1.0" encoding="iso-8859-1"?>
<!-- Generator: Adobe Illustrator 19.0.0, SVG Export Plug-In . SVG Version: 6.00 Build 0)  -->
<svg version="1.1" id="Capa_1" xmlns="http://www.w3.org/2000/svg" xmlns:xlink="http://www.w3.org/1999/xlink" x="0px" y="0px"
	 viewBox="0 0 384 384" style="enable-background:new 0 0 384 384;" xml:space="preserve">
<g>
	<g>
		<path d="M16,320v32c0,17.68,14.32,32,32,32h288c17.68,0,32-14.32,32-32v-32H16z M352,352c0,8.816-7.184,16-16,16H48
			c-8.816,0-16-7.184-16-16v-16h320V352z"/>
	</g>
</g>
<g>
	<g>
		<path d="M192,0C48.496,0,16,71.104,16,144h352C368,71.104,336,0,192,0z M192,16c129.84,0,155.728,59.888,159.456,112H32.544
			C36.272,75.888,62.16,16,192,16z"/>
	</g>
</g>
<g>
	<g>
		<path d="M368,240h-32l-48,32l-48-32H16c-8.832,0-16,7.168-16,16v32c0,8.832,7.168,16,16,16h352c8.832,0,16-7.168,16-16v-32
			C384,247.168,376.832,240,368,240z M16,288v-32h219.152l48,32H16z M368,288h-75.152l48-32H368V288z"/>
	</g>
</g>
<g>
	<g>
		<path d="M346.32,178.336c-7.648,7.632-13.68,13.664-26.4,13.664c-12.704,0-18.736-6.016-26.368-13.664
			C285.36,170.176,275.184,160,255.84,160c-19.312,0-29.472,10.176-37.648,18.336c-7.616,7.648-13.648,13.664-26.32,13.664
			s-18.704-6.016-26.336-13.664c-8.16-8.16-18.32-18.336-37.616-18.336c-19.312,0-29.472,10.176-37.648,18.352
			C82.656,185.984,76.64,192,63.968,192s-18.704-6.016-26.336-13.664C29.472,170.176,19.312,160,0,160v16
			c12.672,0,18.704,6.016,26.336,13.664c8.16,8.16,18.32,18.336,37.632,18.336c19.296,0,29.456-10.176,37.632-18.336
			c7.616-7.648,13.648-13.664,26.32-13.664s18.688,6.016,26.32,13.648C162.4,197.824,172.56,208,191.872,208
			s29.472-10.176,37.648-18.336c7.616-7.648,13.648-13.664,26.32-13.664c12.72,0,18.752,6.032,26.384,13.664
			C290.416,197.84,300.592,208,319.92,208c19.344,0,29.52-10.176,37.696-18.336C365.264,182.016,371.296,176,384,176v-16
			C364.672,160,354.496,170.16,346.32,178.336z"/>
	</g>
</g>
<g>
	<g>
		<circle cx="80" cy="96" r="12"/>
	</g>
</g>
<g>
	<g>
		<circle cx="128" cy="56" r="12"/>
	</g>
</g>
<g>
	<g>
		<circle cx="192" cy="96" r="12"/>
	</g>
</g>
<g>
	<g>
		<circle cx="256" cy="56" r="12"/>
	</g>
</g>
<g>
	<g>
		<circle cx="304" cy="96" r="12"/>
	</g>
</g>
<g>
</g>
<g>
</g>
<g>
</g>
<g>
</g>
<g>
</g>
<g>
</g>
<g>
</g>
<g>
</g>
<g>
</g>
<g>
</g>
<g>
</g>
<g>
</g>
<g>
</g>
<g>
</g>
<g>
</g>
</svg>
