<?xml version="1.0" encoding="iso-8859-1"?>
<!-- Generator: Adobe Illustrator 19.0.0, SVG Export Plug-In . SVG Version: 6.00 Build 0)  -->
<svg version="1.1" id="Capa_1" xmlns="http://www.w3.org/2000/svg" xmlns:xlink="http://www.w3.org/1999/xlink" x="0px" y="0px"
	 viewBox="0 0 480 480" style="enable-background:new 0 0 480 480;" xml:space="preserve">
<g id="XMLID_861_">
	<path id="XMLID_862_" d="M436.102,43.934C407.77,15.603,370.102,0,330.035,0s-77.734,15.603-106.066,43.934
		c-18.065,18.065-31.282,40.544-38.22,65.005l-42.618,150.184l-65.774,65.774H47.535c-26.191,0-47.5,21.309-47.5,47.5
		s21.309,47.5,47.5,47.5h12.604V432.5c0,26.191,21.309,47.5,47.5,47.5s47.5-21.309,47.5-47.5v-29.822l65.774-65.774l150.183-42.617
		c24.462-6.938,46.94-20.155,65.006-38.221C494.586,197.581,494.586,102.419,436.102,43.934z M135.139,394.394V432.5
		c0,15.164-12.336,27.5-27.5,27.5s-27.5-12.336-27.5-27.5v-32.604H47.535c-15.164,0-27.5-12.336-27.5-27.5s12.336-27.5,27.5-27.5
		h38.106l69.601-69.601l40.588,8.909l8.909,40.588L135.139,394.394z M421.959,241.924c-15.658,15.659-35.134,27.112-56.321,33.122
		l-142.467,40.427l-10.55-48.059l-48.059-10.55l40.428-142.467c6.01-21.188,17.463-40.663,33.121-56.321
		C262.665,33.522,295.311,20,330.035,20s67.37,13.522,91.924,38.076C472.646,108.763,472.646,191.237,421.959,241.924z"/>
	<rect id="XMLID_866_" x="237.891" y="222.145" width="20" height="20"/>
	<rect id="XMLID_867_" x="388.65" y="162.145" width="20" height="20"/>
	<rect id="XMLID_868_" x="348.65" y="132.145" width="20" height="20"/>
</g>
<g>
</g>
<g>
</g>
<g>
</g>
<g>
</g>
<g>
</g>
<g>
</g>
<g>
</g>
<g>
</g>
<g>
</g>
<g>
</g>
<g>
</g>
<g>
</g>
<g>
</g>
<g>
</g>
<g>
</g>
</svg>
