<?xml version="1.0" encoding="iso-8859-1"?>
<!-- Generator: Adobe Illustrator 19.0.0, SVG Export Plug-In . SVG Version: 6.00 Build 0)  -->
<svg version="1.1" id="Capa_1" xmlns="http://www.w3.org/2000/svg" xmlns:xlink="http://www.w3.org/1999/xlink" x="0px" y="0px"
	 viewBox="0 0 511.999 511.999" style="enable-background:new 0 0 511.999 511.999;" xml:space="preserve">
<g>
	<g>
		<path d="M511.162,10.258c-2.62-7.857-11.112-12.103-18.969-9.485c-38.244,12.748-80.085,44.329-103.996,76.563
			c-39.49-20.315-89.266-13.956-122.313,19.088c-8.518,8.518-17.352,20.773-21.872,31.945l-66.516,165.228
			C127.455,417.902,25.094,467.336,5.017,485.977c-3.356,3.038-5.26,7.519-4.912,12.239c0.501,6.777,5.563,12.397,12.241,13.657
			c7.933,1.497,85.396-10.103,165.863-42.347c107.02-42.885,192.593-119.875,245.234-229.783l11.367-23.733
			c19.198-40.085,10.972-88.143-20.47-119.584c-0.567-0.567-1.142-1.124-1.719-1.676c20.234-27.089,56.831-54.78,89.056-65.522
			C509.534,26.608,513.78,18.115,511.162,10.258z M171.543,439.858c-35.149,14.511-74.311,31.158-99.7,35.932
			c39.376-29.123,99.5-86.596,133.478-170.992l59.282-147.256c21.022,15.87,48.125,21.716,73.683,16.14
			c4.132,14.785,12.013,28.365,23.035,39.386c9.148,9.148,19.905,16.069,31.72,20.531
			C345.244,329.513,270.769,398.896,171.543,439.858z M407.761,203.053l-1.614,3.369c-8.848-2.901-16.885-7.828-23.618-14.561
			c-10.367-10.368-16.567-24.128-17.457-38.745c-0.301-4.934-3.013-9.403-7.251-11.947c-4.238-2.544-9.459-2.835-13.954-0.78
			c-22.208,10.154-48.645,5.664-66.291-11.106c2.76-4.161,5.93-8.063,9.517-11.65c29.235-29.234,76.805-29.235,106.04,0
			C415.595,140.094,421.473,174.422,407.761,203.053z"/>
	</g>
</g>
<g>
</g>
<g>
</g>
<g>
</g>
<g>
</g>
<g>
</g>
<g>
</g>
<g>
</g>
<g>
</g>
<g>
</g>
<g>
</g>
<g>
</g>
<g>
</g>
<g>
</g>
<g>
</g>
<g>
</g>
</svg>
