<svg id="Layer_1" enable-background="new 0 0 512 512" height="512" viewBox="0 0 512 512" width="512" xmlns="http://www.w3.org/2000/svg"><g><path d="m432.876 191.362c-3.99-4.84-10.408-7.847-16.749-7.847h-19.224l16.278-94.006c1.002-5.925-2.988-11.559-8.862-12.552l-39.539-6.859v-19.596c0-6.23-5.068-11.299-11.297-11.299h-38.513v-28.017c0-6.168-5.029-11.186-11.211-11.186h-42.386c-6.182 0-11.212 5.018-11.212 11.186v108.04h-34.809v-43.95c0-6.292-5.119-11.411-11.41-11.411h-35.029l-2.175-29.117c-.252-3.203-1.726-6.121-4.152-8.218-2.453-2.121-5.584-3.137-8.787-2.897l-40.489 3.029c-3.229.218-6.175 1.688-8.295 4.143-2.124 2.458-3.154 5.595-2.901 8.803l10.732 143.908h-16.994c-6.353 0-12.775 3.014-16.759 7.866-3.433 4.181-4.772 9.26-3.775 14.287l56.351 287.052c2.277 11.712 10.338 19.279 20.537 19.279h207.567c10.171 0 18.241-7.557 20.563-19.266l23.573-120.132c.797-4.064-1.851-8.007-5.916-8.804-4.062-.798-8.006 1.851-8.804 5.915l-23.57 120.117c-.237 1.197-1.635 7.169-5.846 7.169h-207.567c-4.211 0-5.581-5.948-5.815-7.154l-56.356-287.08c-.042-.213-.171-.863.651-1.865 1.153-1.404 3.278-2.385 5.167-2.385h62.695c1.521 25.505 13.146 49.988 32.819 69.06 18.913 18.334 42.467 28.85 64.624 28.85 22.159 0 45.717-10.515 64.634-28.849 19.681-19.075 31.303-43.562 32.809-69.061h62.694c1.888 0 4.015.982 5.174 2.388.836 1.016.708 1.674.669 1.877l-25.839 131.642c-.798 4.064 1.85 8.006 5.915 8.804 4.065.797 8.006-1.85 8.804-5.915l25.842-131.655c.98-5.043-.376-10.119-3.817-14.294zm-282.333-116.086v108.239h-22.655l-10.598-142.109 34.71-2.596 2.107 28.203c-2.19 2.08-3.564 5.011-3.564 8.263zm49.809 180.068c-14.976-15.096-25.789-35.651-26.884-58.704-.16-3.355-.358-7.532-3.752-10.507-1.312-1.149-2.709-1.794-4.172-2.156v-105.112h34.809v176.479zm49.809 25.767c-11.617-1.21-23.728-5.937-34.809-13.368v-133.517h34.809zm99.619-97.56c-2.693.112-5.235.583-7.516 2.583-3.393 2.975-3.592 7.15-3.752 10.512-1.001 21.306-10.312 40.475-23.541 55.176v-83.824c0-4.143-3.358-7.5-7.5-7.5s-7.5 3.357-7.5 7.5v97.411c-10.92 8.013-23.04 13.376-34.809 15.26v-265.669h34.809v118.302c0 4.143 3.358 7.5 7.5 7.5s7.5-3.357 7.5-7.5v-79.099h34.81v129.348zm15-.035v-98.193l32.914 5.71-16.014 92.482h-16.9z"/><path d="m254.177 323.888c-22.502 0-43.797 5.674-59.963 15.976-17.217 10.972-26.699 25.881-26.699 41.981 0 16.089 9.481 30.994 26.698 41.97 16.171 10.31 37.467 15.987 59.964 15.987s43.793-5.678 59.964-15.987c17.216-10.976 26.698-25.881 26.698-41.97 0-16.101-9.482-31.01-26.699-41.981-16.166-10.302-37.462-15.976-59.963-15.976zm71.662 57.957c0 23.285-32.817 42.957-71.662 42.957s-71.662-19.672-71.662-42.957 32.817-42.957 71.662-42.957 71.662 19.672 71.662 42.957z"/></g></svg>