<svg height="512pt" viewBox="-25 0 512 512" width="512pt" xmlns="http://www.w3.org/2000/svg"><path d="m379.625 177.921875c-8.628906-6.367187-16.753906-12.125-24.453125-17.582031-30.5-21.582032-52.605469-37.285156-72.683594-67.238282-5.039062-15.660156-9.855469-33.03125-15.449219-53.277343l-11.074218-39.824219-30.292969 14.484375 1.375 6.671875c.085937.425781 2.304687 11.535156 4.429687 29.328125-5.445312 11.953125-10.058593 22.644531-14.199218 32.28125-6.664063 15.523437-12.136719 28.230469-18.347656 39.601563-12.839844 8.316406-27.132813 15.652343-42.269532 23.375-19.09375 9.75-38.832031 19.835937-55.425781 32.101562-64.773437 44.679688-104.402344 108.925781-101.035156 163.765625-.1328128 6.96875.296875 53.832031 32.25 88.257813 22.191406 23.90625 53.996093 36.023437 94.535156 36.023437 6.925781 0 13.9375-.929687 21.296875-2.632813 7.515625 1.695313 15.421875 2.652344 23.808594 2.652344.296875 0 .601562-.011718.898437-.011718-.234375 1.0625-.304687 2.167968-.113281 3.308593.714844 4.253907 4.394531 7.265625 8.570312 7.265625.476563 0 .957032-.035156 1.441407-.125l29.625-4.949218-14.199219 14.226562c-3.402344 3.402344-3.394531 8.90625.007812 12.300781 1.699219 1.695313 3.925782 2.539063 6.152344 2.539063 2.226563 0 4.460938-.855469 6.160156-2.550782l19.652344-19.6875v25.074219c0 4.800781 3.894532 8.699219 8.699219 8.699219 4.800781 0 8.699219-3.898438 8.699219-8.699219v-25.074219l19.652344 19.6875c1.695312 1.707032 3.921874 2.550782 6.160156 2.550782 2.226562 0 4.445312-.84375 6.148437-2.539063 3.402344-3.394531 3.410157-8.902343.011719-12.300781l-14.234375-14.257812 29.378906 5.886718c.574219.113282 1.148438.175782 1.710938.175782 4.0625 0 7.691406-2.855469 8.519531-6.996094.257812-1.3125.15625-2.589844-.160156-3.808594 7.394531-.417969 14.753906-2.042969 21.933594-4.828125 8.953124 2.523437 17.957031 3.941406 26.839843 4.089844.683594.007812 1.363281.015625 2.042969.015625 28.195312 0 51.578125-9.640625 69.527344-28.65625 32.125-34.050782 35.398437-86.691406 35.691406-95.304688h.027344c1.988281-31.054687-1.90625-109.179687-81.308594-164.019531zm-113.257812-78.15625v.015625c.035156.113281.070312.21875.113281.332031.757812 2.332031 1.53125 4.65625 2.304687 6.925781.085938.25.183594.503907.269532.753907 1.226562 3.550781 2.488281 7.039062 3.777343 10.457031.589844 1.574219 1.191407 3.140625 1.808594 4.699219.515625 1.296875 1.035156 2.601562 1.558594 3.886719.835937 2.042968 1.703125 4.082031 2.589843 6.097656.582032 1.324218 1.175782 2.65625 1.777344 3.960937.902344 1.984375 1.835938 3.957031 2.800782 5.933594.617187 1.25 1.242187 2.503906 1.886718 3.75.757813 1.46875 1.53125 2.949219 2.324219 4.410156.703125 1.304688 1.390625 2.609375 2.121094 3.90625 1.285156 2.289063 2.625 4.574219 4.019531 6.855469.894531 1.476562 1.851562 2.957031 2.800781 4.425781.738281 1.148438 1.476563 2.304688 2.253907 3.460938.992187 1.5 2.007812 2.992187 3.054687 4.480469.859375 1.234374 1.773437 2.480468 2.667969 3.722656 1.480468 2.039062 3.003906 4.074218 4.578125 6.117187 1.355469 1.757813 2.722656 3.515625 4.164062 5.289063.933594 1.148437 1.914063 2.304687 2.882813 3.460937 1.476562 1.765625 3 3.542969 4.558594 5.324219.867187.992188 1.730468 1.976562 2.617187 2.964844 2.503906 2.792968 5.089844 5.605468 7.828125 8.457031 3.914062 3.828125 7.550781 7.710937 10.980469 11.625.601562.6875 1.121093 1.375 1.703125 2.0625 2.882812 3.382813 5.648437 6.773437 8.179687 10.203125.304688.410156.582031.816406.878907 1.234375 35.625 49.023437 37.15625 102.125 24.601562 141.636719-.113281.359375-.226562.722656-.347656 1.078125-.949219 2.921875-1.984375 5.761719-3.078125 8.515625-.191407.480468-.394531.957031-.585938 1.425781-.972656 2.386719-2.015625 4.691406-3.085937 6.945313-.652344 1.355468-1.324219 2.695312-2.011719 4.027343-.382813.730469-.753906 1.46875-1.148437 2.191407-.789063 1.449218-1.597657 2.878906-2.433594 4.289062-.339844.582031-.679688 1.15625-1.027344 1.730469-.976562 1.582031-1.96875 3.140625-2.992188 4.652343-.203124.296876-.402343.601563-.609374.898438-10.328126 14.988281-23.238282 26.507812-37.449219 32.65625-.183594.078125-.324219.226562-.496094.3125-9.09375 3.804688-18.46875 5.292969-27.675781 4.011719-.824219-.113281-1.617188-.15625-2.355469-.15625-1.148437 0-2.175781.105469-3.011719.183593-.425781.042969-.859375.101563-1.285156.101563h-28.535156c-12.535156 0-24.960938-4.097656-36.128906-11.210937-1.976563-1.261719-3.863282-2.644532-5.726563-4.0625-.800781-.617188-1.609375-1.226563-2.390625-1.871094-1.53125-1.261719-3.011719-2.585938-4.460938-3.949219-1.203124-1.140625-2.367187-2.332031-3.507812-3.550781-1.035156-1.097656-2.085938-2.191406-3.0625-3.351563-1.859375-2.199219-3.632812-4.496093-5.304688-6.90625-.261718-.363281-.546874-.703125-.800781-1.078125-1.984375-2.949218-3.804687-6.0625-5.472656-9.289062-1.234375-2.402344-2.410156-4.839844-3.445313-7.363282-.042968-.109374-.078124-.226562-.121093-.335937-1.085938-2.679687-2.042969-5.414063-2.886719-8.203125-.085938-.296875-.175781-.59375-.261719-.890625-.828125-2.84375-1.554687-5.738281-2.121093-8.6875 0-.011719 0-.019531-.011719-.027344-.683594-3.574219-1.207031-7.535156-1.484375-11.78125-.035156-.574219-.070313-1.148437-.097656-1.71875-.070313-1.382812-.113282-2.785156-.113282-4.230469 0-1.589843.019532-3.191406.097656-4.792968.035157-.75.09375-1.515625.148438-2.277344.109375-1.648438.257812-3.300781.460938-4.953125.050781-.414063.09375-.832031.144531-1.257813 2.210937-16.652343 8.585937-33.503906 19.027343-49.710937.035157-.042969.050782-.09375.085938-.136719 1.503906-2.34375 3.105469-4.664062 4.777344-6.96875 3.007812-4.140625 5.785156-8.4375 8.4375-12.796875.410156-.671875.828125-1.324219 1.226562-2 2.519532-4.265625 4.871094-8.613281 7.078125-13.042969.332031-.667968.664063-1.347656.992188-2.019531 2.261719-4.652343 4.375-9.367187 6.316406-14.171875.007813-.023437.015625-.050781.035156-.078125 29.839844-73.910156 22.941407-163.054687 17.21875-204.964843l-1.035156-8.882813 3.304687 11.933594c5.738282 20.78125 10.75 38.832031 16.109376 55.316406zm-220.445313 319.027344c-29.742187-31.265625-28.359375-76.414063-28.34375-76.761719.027344-.402344.035156-.808594.011719-1.210938-3.113282-48.175781 34.46875-107.917968 93.761718-148.824218 15.667969-11.578125 34.765626-21.328125 53.230469-30.757813 2.523438-1.289062 5.054688-2.585937 7.59375-3.890625-6.871093 6.75-14.855469 13.40625-24.453125 20.496094-79.511718 54.851562-83.417968 133.035156-81.410156 164.097656h.027344c.320312 9.625 4.472656 74.050782 47.691406 106.066406-28.863281-2.210937-51.734375-12.007812-68.109375-29.214843zm99.289063 25.558593c-1.15625-.371093-2.34375-.71875-3.457032-1.148437-2.0625-.789063-4.0625-1.667969-6.019531-2.636719-.441406-.214844-.867187-.453125-1.304687-.675781-6.375-3.324219-12.222657-7.5625-17.476563-12.789063-31.351563-31.179687-32.746094-84.890624-32.761719-85.058593l.042969-.605469-.035156-.609375c-1.820313-28.105469 1.738281-98.859375 74.152343-148.824219 45.351563-33.515625 55.851563-57.972656 74.910157-102.375.429687-1.007812.871093-2.027344 1.316406-3.054687 2.375 44.488281.121094 104.195312-20.636719 154.824219-.214844.53125-.425781 1.070312-.652344 1.601562-1.054687 2.515625-2.183593 4.992188-3.332031 7.453125-.644531 1.378906-1.304687 2.75-1.984375 4.109375-.964844 1.945312-1.945312 3.886719-2.984375 5.800781-1.070312 1.976563-2.191406 3.925781-3.332031 5.855469-.816406 1.390625-1.609375 2.800781-2.460938 4.175781-2.097656 3.347657-4.273437 6.652344-6.601562 9.855469-1.941406 2.671875-3.742188 5.316406-5.445312 7.941406-.148438.226563-.28125.460938-.417969.6875-1.601563 2.496094-3.097657 4.976563-4.488281 7.429688-.082032.136718-.148438.285156-.226563.425781-1.472656 2.617187-2.828125 5.210937-4.082031 7.777344-.050782.113281-.105469.226562-.15625.332031-1.289063 2.652344-2.460938 5.269531-3.53125 7.863281-.0625.148438-.121094.304688-.183594.453125-1.0625 2.601563-2.027344 5.175782-2.886719 7.710938-.070312.214844-.148437.425781-.21875.640625-.859375 2.59375-1.644531 5.152343-2.3125 7.664062-.054687.191407-.113281.386719-.167969.585938-.695312 2.667969-1.3125 5.296875-1.808593 7.871093-.164063.851563-.277344 1.714844-.425781 2.566407-.253907 1.460937-.496094 2.914062-.6875 4.339843-.214844 1.574219-.382813 3.140626-.53125 4.714844-.042969.480469-.085938.957032-.121094 1.425782-1.140625 13.539062.09375 26.941406 3.757812 39.90625.007813.027343.015625.050781.027344.078124.738281 2.617188 1.582031 5.21875 2.519531 7.804688.253907.695312.515625 1.382812.785157 2.070312.703124 1.824219 1.460937 3.644532 2.269531 5.445313.511719 1.148437 1.035156 2.277344 1.582031 3.402344.289062.589843.53125 1.199219.828125 1.78125.503906 1 1.070313 1.949219 1.609375 2.921875.453125.835937.894531 1.679687 1.375 2.496094 1.332031 2.289062 2.714844 4.523437 4.183594 6.675781.296875.425781.617187.832031.921875 1.261719 1.296875 1.84375 2.636719 3.636718 4.027343 5.375.488282.601562.984376 1.191406 1.480469 1.785156 1.433594 1.71875 2.914063 3.382812 4.445313 5 .3125.332031.617187.671875.9375.992187 1.984375 2.035157 4.011718 4.011719 6.117187 5.855469-8.855469 3.113281-18.199219 4.769531-27.917969 4.921875-10.40625.195313-19.933593-1.246094-28.640624-4.101563zm298.332031-102.671874c0 .523437-1.410157 54.269531-32.753907 85.429687-14.652343 14.5625-33.605468 21.679687-56.886718 21.386719-1.289063-.019532-2.585938-.082032-3.890625-.160156 13.84375-10.90625 26.125-26.273438 35.425781-45.234376.539062-1.097656 1.007812-2.296874 1.53125-3.429687.128906-.285156.253906-.574219.382812-.859375 1.453126-3.203125 2.8125-6.515625 4.089844-9.945312.46875-1.234376.914063-2.480469 1.355469-3.742188.75-2.183594 1.445313-4.417969 2.121094-6.679688.6875-2.261718 1.351562-4.515624 1.941406-6.820312.210937-.835938.382813-1.707031.582031-2.550781.671875-2.789063 1.394532-5.558594 1.921875-8.402344 4.105469-22.175781 3.707031-44.5-.871093-66.152344-.425782-2.085937-1-4.183593-1.511719-6.28125-.417969-1.660156-.808594-3.320312-1.277344-4.964843-.792969-2.871094-1.699219-5.75-2.65625-8.628907-.183594-.550781-.371094-1.089843-.5625-1.628906-3.378906-9.8125-7.761719-19.640625-13.234375-29.402344-.066406-.113281-.128906-.234375-.191406-.347656-1.765625-3.140625-3.632813-6.265625-5.636719-9.386719-.335937-.53125-.710937-1.046875-1.050781-1.574218-2.777344-4.226563-5.761719-8.421876-8.988282-12.597657-1.800781-2.339843-3.636718-4.664062-5.550781-6.949219-1.199219-1.421874-2.417969-2.839843-3.671875-4.246093-3.398437-3.847657-6.914062-7.628907-10.65625-11.292969-2.636718-2.738281-5.113281-5.4375-7.523437-8.117188-.878907-.972656-1.703125-1.9375-2.558594-2.914062-1.46875-1.667969-2.90625-3.339844-4.289063-4.992188-.964843-1.15625-1.90625-2.296874-2.835937-3.445312-1.203125-1.476562-2.359375-2.957031-3.496094-4.425781-.898437-1.167969-1.8125-2.332031-2.671875-3.488281-1.246094-1.664063-2.417968-3.324219-3.585937-4.984376-1.03125-1.472656-2.058594-2.949218-3.042969-4.421874-1.226562-1.835938-2.4375-3.660157-3.582031-5.496094-.707031-1.125-1.367188-2.246094-2.039063-3.367188-.894531-1.496094-1.78125-2.992187-2.636718-4.496094-.652344-1.140624-1.285157-2.289062-1.914063-3.4375-.269531-.488281-.511719-.984374-.773437-1.472656 12.867187 11.371094 26.890624 21.296875 42.566406 32.398438 7.648437 5.410156 15.71875 11.117187 24.28125 17.453125.078125.050781.15625.109375.226562.164062 72.183594 49.773438 75.738282 120.527344 73.914063 149.503907zm0 0"/></svg>