<svg id="Capa_1" enable-background="new 0 0 511.569 511.569" height="512" viewBox="0 0 511.569 511.569" width="512" xmlns="http://www.w3.org/2000/svg"><path d="m370.354 221.517c5.48-16.246 2.511-34.151-8.051-47.791 10.314-12.76 11.256-31.274 1.395-45.118-5.905-8.294-14.701-13.708-24.766-15.244-1.09-.166-2.179-.276-3.265-.347l.194-5.98c.444-13.74-8.929-26.063-22.289-29.302-1.133-.274-2.276-.471-3.423-.607v-10.18c0-5.918-2.254-11.532-6.347-15.808-6.732-7.031-16.899-8.951-25.604-5.145-.212-3.65-.059-7.314.468-10.95l1.971-13.577c.95-6.559-1.54-12.985-6.662-17.19-5.122-4.206-11.91-5.397-18.156-3.188l-5.704 2.017c-32.495 11.49-56.026 40.421-60.859 74.358l-.061.011c-10.179 1.804-19.093 7.43-25.102 15.842-7.32 10.248-9.279 23.488-5.241 35.417l3.013 8.902c-4.055 3.17-7.46 7.175-9.94 11.827-6.588 12.359-5.735 27.195 2.223 38.717l.677.98c-4.889 5.158-7.819 12.095-7.819 19.61v9.555c-9.803 3.898-16.755 13.475-16.755 24.651v14.332c0 12.605 8.842 23.177 20.646 25.858l49.604 209.866c2.579 10.915 12.214 18.538 23.43 18.538h64.707c11.216 0 20.851-7.623 23.43-18.538l21.551-91.179c.953-4.031-1.543-8.071-5.573-9.024-4.039-.953-8.072 1.542-9.024 5.574l-11.828 50.042h-101.818l-38.908-164.616h41.687c4.143 0 7.5-3.358 7.5-7.5s-3.357-7.5-7.5-7.5h-51.382c-6.353 0-11.521-5.169-11.521-11.522v-14.332c0-6.353 5.169-11.522 11.521-11.522h74.396c.009 0 .017.002.025.002s.016-.002.024-.002h123.579c6.353 0 11.521 5.169 11.521 11.522v14.332c0 6.353-5.169 11.522-11.521 11.522h-114.68c-4.143 0-7.5 3.358-7.5 7.5s3.357 7.5 7.5 7.5h105.985l-19.723 83.443c-.953 4.031 1.543 8.071 5.573 9.024.58.137 1.161.203 1.732.203 3.397 0 6.477-2.325 7.292-5.776l20.757-87.82c11.27-3.058 19.584-13.371 19.584-25.595v-14.332c.001-8.816-4.326-16.635-10.963-21.46zm-66.706 241.928-6.178 26.137c-.973 4.114-4.604 6.988-8.832 6.988h-64.707c-4.228 0-7.859-2.874-8.832-6.988l-6.178-26.137zm51.148-246.991h-79.866c24.6-9.27 48.871-19.712 72.413-31.181 1.177-.574 2.323-1.211 3.451-1.878 7.124 9.526 9.11 21.852 5.405 33.097-.465-.024-.932-.038-1.403-.038zm-3.316-79.146c6.812 9.563 5.011 22.857-4.101 30.264-2.032 1.652-4.256 3.071-6.607 4.217-30.303 14.763-61.833 27.81-93.714 38.777l-17.118 5.889h-67.933v-7.683c0-6.211 4.209-11.602 10.235-13.108l34.942-8.736c40.425-10.106 77.756-28 110.955-53.186l1.672-1.268c2.802-2.126 5.987-3.527 9.334-4.158.107-.018.215-.034.321-.056 2.348-.407 4.772-.44 7.202-.068 6.02.918 11.28 4.156 14.812 9.116zm-96.365-120.059 5.704-2.017c1.803-.636 3.145.234 3.638.639.493.404 1.61 1.55 1.336 3.444l-1.971 13.577c-1.008 6.953-.944 13.984.166 20.915-18.597 9.715-38.376 16.702-59.018 20.818 5.515-26.285 24.502-48.309 50.145-57.376zm-82.055 106.675c-2.496-7.372-1.285-15.555 3.238-21.888 3.714-5.199 9.224-8.676 15.514-9.791l11.063-1.96c28.51-5.053 55.551-15.171 80.374-30.074 3.167-1.901 7.165-1.366 9.72 1.302 1.407 1.469 2.182 3.399 2.182 5.434v12.361c-1.662.715-3.268 1.579-4.786 2.605-17.793 12.02-36.923 22.353-56.86 30.712-3.819 1.602-5.618 5.997-4.017 9.816 1.603 3.82 5.999 5.62 9.817 4.017 20.844-8.74 40.849-19.545 59.456-32.116 3.299-2.228 7.408-2.969 11.278-2.031 6.492 1.574 11.047 7.563 10.831 14.239l-.279 8.592c-3.485 1.268-6.799 3.069-9.846 5.381l-1.672 1.268c-31.574 23.953-67.079 40.972-105.527 50.584l-34.941 8.736c-.313.078-.612.184-.921.272l-1.193-1.727c-4.756-6.886-5.266-15.751-1.329-23.137 3.044-5.708 8.407-9.806 14.714-11.241l2.833-.645c8.444-1.921 17.087-4.25 25.688-6.922 3.956-1.229 6.167-5.432 4.938-9.387-1.228-3.955-5.433-6.167-9.387-4.938-8.232 2.558-16.498 4.785-24.565 6.621l-2.833.645c-.375.085-.743.189-1.114.285z"/></svg>