<svg height="512pt" viewBox="0 0 512 512" width="512pt" xmlns="http://www.w3.org/2000/svg"><path d="m510.28125 97.816406c-5.433594-32.769531-23.058594-60.273437-49.613281-77.445312-20.589844-13.328125-44.578125-20.371094-69.375-20.371094-41.273438 0-81.375 19.527344-107.289063 52.261719-67.796875 85.976562-145.765625 163.945312-231.765625 231.753906-25.949219 20.546875-43.652343 49.738281-49.851562 82.195313-6.339844 33.199218.050781 66.742187 17.984375 94.441406 20.78125 32.148437 57.601562 51.34375 98.496094 51.347656h.011718c31.136719 0 62.492188-11.214844 88.277344-31.570312 101.386719-79.949219 193.332031-171.890626 273.273438-273.273438 25.199218-31.921875 36.082031-71.773438 29.851562-109.339844zm-53.402344 90.757813c-78.488281 99.539062-168.757812 189.804687-268.304687 268.304687-20.523438 16.199219-45.273438 25.121094-69.695313 25.121094h-.007812c-30.671875-.003906-58.074219-14.070312-73.3125-37.644531-28.03125-43.289063-16.914063-103.390625 25.28125-136.800781 87.824218-69.25 167.46875-148.890626 236.703125-236.695313 20.253906-25.585937 51.5625-40.859375 83.75-40.859375 19 0 37.351562 5.378906 53.078125 15.5625 19.382812 12.53125 32.277344 32.832031 36.3125 57.164062 4.851562 29.246094-3.824219 60.535157-23.804688 85.847657zm0 0"/><path d="m382.40625 62.839844c-6.507812-5.128906-15.941406-4.015625-21.066406 2.492187-35.765625 45.351563-74.75 88.914063-115.871094 129.472657-5.898438 5.816406-5.964844 15.316406-.144531 21.210937 2.933593 2.976563 6.804687 4.46875 10.679687 4.46875 3.804688 0 7.609375-1.4375 10.53125-4.320313 42.007813-41.429687 81.828125-85.925781 118.359375-132.257812 5.128907-6.507812 4.015625-15.9375-2.488281-21.066406zm0 0"/><path d="m259.074219 309.734375c-40.5625 41.125-84.125 80.109375-129.476563 115.867187-6.503906 5.128907-7.621094 14.5625-2.492187 21.066407 2.960937 3.753906 7.355469 5.714843 11.789062 5.714843 3.253907 0 6.527344-1.054687 9.277344-3.222656 46.324219-36.527344 90.824219-76.351562 132.261719-118.363281 5.816406-5.894531 5.75-15.394531-.144532-21.210937-5.902343-5.816407-15.398437-5.753907-21.214843.148437zm0 0"/><path d="m336.332031 224.929688c-3.949219 0-7.8125 1.609374-10.609375 4.398437-2.792968 2.792969-4.390625 6.660156-4.390625 10.601563 0 3.949218 1.597657 7.820312 4.390625 10.609374 2.800782 2.789063 6.660156 4.390626 10.609375 4.390626s7.820313-1.601563 10.609375-4.390626c2.789063-2.789062 4.390625-6.660156 4.390625-10.609374 0-3.941407-1.601562-7.808594-4.390625-10.601563-2.789062-2.789063-6.660156-4.398437-10.609375-4.398437zm0 0"/><path d="m400.601562 144.597656c-3.949218 0-7.820312 1.601563-10.609374 4.390625-2.789063 2.800781-4.390626 6.660157-4.390626 10.609375 0 3.953125 1.601563 7.820313 4.390626 10.613282 2.789062 2.789062 6.660156 4.386718 10.609374 4.386718 3.941407 0 7.8125-1.597656 10.609376-4.386718 2.789062-2.800782 4.390624-6.660157 4.390624-10.613282 0-3.949218-1.601562-7.808594-4.390624-10.609375-2.796876-2.789062-6.667969-4.390625-10.609376-4.390625zm0 0"/><path d="m135.5 351.332031c3.953125 0 7.8125-1.601562 10.609375-4.390625 2.789063-2.789062 4.390625-6.660156 4.390625-10.609375 0-3.941406-1.601562-7.8125-4.390625-10.601562-2.800781-2.789063-6.65625-4.398438-10.609375-4.398438-3.949219 0-7.820312 1.609375-10.609375 4.398438-2.789063 2.789062-4.390625 6.660156-4.390625 10.601562 0 3.949219 1.601562 7.820313 4.390625 10.609375 2.789063 2.789063 6.660156 4.390625 10.609375 4.390625zm0 0"/></svg>