<svg id="Capa_1" enable-background="new 0 0 511.684 511.684" height="512" viewBox="0 0 511.684 511.684" width="512" xmlns="http://www.w3.org/2000/svg"><g><path d="m364.907 87.461c13.686-2.013 24.227-13.83 24.227-28.066 0-15.644-12.728-28.371-28.372-28.371h-15.806v-7.579c0-12.928-10.518-23.445-23.445-23.445h-14.552c-12.928 0-23.444 10.517-23.444 23.444v7.579h-83.878c-4.143 0-7.5 3.357-7.5 7.5s3.357 7.5 7.5 7.5h91.378 46.441 23.306c7.373 0 13.372 5.998 13.372 13.371s-5.999 13.372-13.372 13.372h-209.84c-7.373 0-13.372-5.999-13.372-13.372s5.999-13.371 13.372-13.371h13.616c4.143 0 7.5-3.357 7.5-7.5s-3.357-7.5-7.5-7.5h-13.616c-15.645 0-28.372 12.728-28.372 28.371 0 14.236 10.541 26.053 24.227 28.066l-17.033 39.54c-.394.911-.614 1.915-.614 2.971v324.509c0 1.056.22 2.059.614 2.97l19.155 44.468c2.556 5.933 8.381 9.766 14.841 9.766h184.205c6.46 0 12.285-3.833 14.841-9.767l19.154-44.466c.394-.911.614-1.915.614-2.971v-324.509c0-1.056-.22-2.06-.615-2.972zm-34.951-56.438h-31.441v-7.579c0-4.656 3.788-8.444 8.444-8.444h14.552c4.657 0 8.445 3.788 8.445 8.444zm-166.979 56.744h185.73l14.949 34.704h-215.629zm-18.847 49.704h107.595c-15.378 30.469-24.674 64.246-26.987 98.459-1.288 19.064-.438 38.304.385 56.91.941 21.289 1.914 43.302-.425 64.514-2.228 20.202-8.493 39.851-17.645 55.328-9.954 16.836-23.242 28.664-38.468 34.298h-24.455zm204.88 358.511c-.184.426-.602.701-1.065.701h-184.206c-.464 0-.882-.275-1.065-.7l-14.647-34.004h215.63zm18.544-49.003h-82.479c13.485-13.006 22.5-32.546 26.477-57.84.644-4.092-2.152-7.931-6.244-8.574-4.1-.64-7.931 2.152-8.574 6.244-5.034 32.018-18.145 52.23-38.978 60.104h-59.903c8.401-7.077 15.855-16.016 22.113-26.599 10.358-17.521 17.151-38.724 19.643-61.317 2.466-22.362 1.466-44.964.5-66.82-.805-18.195-1.636-37.009-.403-55.236 2.348-34.746 12.324-69.02 28.903-99.405h60.413c-15.355 30.451-24.622 64.21-26.933 98.393-1.502 22.223-1.61 44.682-1.716 66.4-.079 16.443-.161 33.446-.853 50.111-.172 4.138 3.044 7.633 7.183 7.804 4.091.177 7.632-3.043 7.804-7.183.703-16.938.786-34.081.866-50.66.104-21.488.212-43.708 1.683-65.461 2.349-34.774 12.361-69.063 28.966-99.47h21.532z"/></g></svg>